<svg width="32" height="32" viewBox="0 0 32 32" fill="none" xmlns="http://www.w3.org/2000/svg">
<path d="M22.0314 15.6488C26.1274 15.6488 29.4554 12.3209 29.4554 8.22478C29.4554 4.12878 26.1275 0.800781 22.0314 0.800781C17.9354 0.800781 14.6074 4.12867 14.6074 8.22478C14.6396 12.3529 17.9355 15.6488 22.0314 15.6488ZM18.7035 6.78478L20.4955 6.59282C20.6234 6.59282 20.7196 6.49683 20.7834 6.40085L21.5194 4.76891C21.7113 4.32092 22.3513 4.32092 22.5435 4.76891L23.2794 6.40085C23.3435 6.49683 23.4395 6.59282 23.5674 6.59282L25.3593 6.78478C25.8392 6.84884 26.0314 7.42472 25.6794 7.74484L24.3354 8.9609C24.2394 9.05688 24.2075 9.15286 24.2394 9.28099L24.5914 11.041C24.6874 11.521 24.1754 11.873 23.7595 11.6491L22.1914 10.7531C22.0955 10.689 21.9673 10.689 21.8394 10.7531L20.2714 11.6491C19.8553 11.8732 19.3435 11.5212 19.4394 11.041L19.7914 9.28099C19.8234 9.15308 19.7914 9.02496 19.6955 8.9609L18.3515 7.74484C18.0314 7.42475 18.2233 6.84884 18.7035 6.78478H18.7035Z" fill="#56BB6F"/>
<path d="M0.974409 25.7283C0.718381 26.0162 0.750301 26.4963 1.03847 26.7524L6.06236 31.0723C6.35031 31.3283 6.83041 31.2964 7.08647 31.0082L9.42241 28.3203L3.34242 23.0723L0.974409 25.7283Z" fill="#434557"/>
<path d="M30.7981 18.624C30.4142 18.176 29.8381 17.9841 29.2622 18.112L24.3981 19.2959C24.3981 19.3919 24.3981 19.52 24.3662 19.616C24.2061 20.9919 23.1501 22.112 21.7742 22.3039L21.4542 22.3359C19.6622 22.5919 17.8381 22.6879 16.0461 22.656L14.574 22.624C14.0941 22.624 13.7099 22.208 13.7099 21.728C13.7099 21.2481 14.126 20.864 14.6059 20.864L16.078 20.8959C17.774 20.96 19.5022 20.8318 21.166 20.6079L21.4861 20.576C22.062 20.48 22.5421 20.0321 22.6062 19.424C22.6381 19.072 22.5421 18.72 22.3182 18.464C22.0941 18.176 21.7743 18.016 21.4222 17.984L13.7422 17.184C12.9103 17.0881 12.0462 17.3119 11.3103 17.7599L4.6543 21.9521L10.8943 27.328L17.3263 28.384C18.4464 28.576 19.5662 28.32 20.4944 27.68L30.4784 20.896C30.8304 20.64 31.0864 20.2879 31.1183 19.84C31.2143 19.392 31.0864 18.944 30.7984 18.6239L30.7981 18.624Z" fill="#434557"/>
</svg>
