<svg width="50" height="50" viewBox="0 0 50 50" fill="none" xmlns="http://www.w3.org/2000/svg">
<path d="M37.0045 11.3204H32.5245V9.92021C32.5245 9.20036 31.9645 8.64007 31.2444 8.64007H28.6445C28.1244 7.12 26.6445 6 24.9247 6C23.2048 6 21.7648 7.12 21.2048 8.64007H18.605C17.8851 8.64007 17.3248 9.20006 17.3248 9.92021V11.3204H12.9247C12.2048 11.3204 11.6445 11.8803 11.6445 12.6005V42.7205C11.6445 43.4404 12.2045 44.0007 12.9247 44.0007H37.0447C37.7645 44.0007 38.3248 43.4407 38.3248 42.7205L38.3245 12.6005C38.2846 11.8806 37.7247 11.3206 37.0045 11.3206L37.0045 11.3204ZM19.9645 11.2004H22.3244C23.0442 11.2004 23.6045 10.6404 23.6045 9.92024C23.6045 9.16017 24.2044 8.56031 24.9645 8.56031C25.7245 8.56031 26.3244 9.16019 26.3244 9.92024C26.3244 10.6401 26.8844 11.2004 27.6045 11.2004H29.9645V13.8804H19.9645V11.2004ZM20.8046 23.4804C20.6045 23.4804 20.4846 23.3205 20.4846 23.1603V21.2404C20.4846 21.0404 20.6444 20.9204 20.8046 20.9204H23.6846V18.0404C23.6846 17.8403 23.8445 17.7203 24.0046 17.7203H25.9246C26.1246 17.7203 26.2446 17.8802 26.2446 18.0404V20.9204H29.1246C29.3247 20.9204 29.4446 21.0803 29.4446 21.2404V23.1603C29.4446 23.3604 29.2848 23.4804 29.1246 23.4804H26.2446V26.3604C26.2446 26.5604 26.0847 26.6804 25.9246 26.6804H24.0046C23.8046 26.6804 23.6846 26.5205 23.6846 26.3604V23.4804H20.8046ZM32.8846 38.2004C32.8846 38.4004 32.7247 38.5204 32.5646 38.5204H17.3646C17.1645 38.5204 17.0445 38.3605 17.0445 38.2004V36.2805C17.0445 36.0804 17.2044 35.9604 17.3646 35.9604H32.5646C32.7646 35.9604 32.8846 36.1203 32.8846 36.2805V38.2004ZM32.8846 32.5603C32.8846 32.7604 32.7247 32.8803 32.5646 32.8803H17.3646C17.1645 32.8803 17.0445 32.7205 17.0445 32.5603V30.6404C17.0445 30.4403 17.2044 30.3203 17.3646 30.3203H32.5646C32.7646 30.3203 32.8846 30.4802 32.8846 30.6404V32.5603Z" fill="#56BB6F"/>
</svg>
