<svg width="50" height="50" viewBox="0 0 50 50" fill="none" xmlns="http://www.w3.org/2000/svg">
<path d="M37.9897 6H12.0698C10.0298 6 8.42969 7.64007 8.42969 9.64007V40.3201C8.42969 42.36 10.0698 43.9601 12.0698 43.9601H37.9497C39.9897 43.9601 41.5898 42.3201 41.5898 40.3201V9.64007C41.6297 7.64007 39.9899 6 37.9899 6H37.9897ZM17.6298 35.56H17.0698C16.0698 35.56 15.2296 34.7601 15.2296 33.7199C15.2296 32.7199 16.0296 31.8797 17.0698 31.8797H17.6298C18.6297 31.8797 19.4699 32.6796 19.4699 33.7199C19.4699 34.7199 18.67 35.56 17.6298 35.56ZM17.6298 26.84H17.0698C16.0698 26.84 15.2296 26.0401 15.2296 24.9999C15.2296 23.9999 16.0296 23.1597 17.0698 23.1597H17.6298C18.6297 23.1597 19.4699 23.9596 19.4699 24.9999C19.4699 25.9999 18.67 26.84 17.6298 26.84ZM17.6298 18.12H17.0698C16.0698 18.12 15.2296 17.3201 15.2296 16.2799C15.2296 15.2399 16.0296 14.4397 17.0698 14.4397H17.6298C18.6297 14.4397 19.4699 15.2396 19.4699 16.2799C19.4699 17.3201 18.67 18.12 17.6298 18.12ZM32.9897 35.56H23.7897C22.7897 35.56 21.9496 34.7601 21.9496 33.7199C21.9496 32.7199 22.7495 31.8797 23.7897 31.8797H33.0297C34.0297 31.8797 34.8699 32.6796 34.8699 33.7199C34.8297 34.7199 33.9899 35.56 32.9899 35.56H32.9897ZM32.9897 26.84H23.7897C22.7897 26.84 21.9496 26.0401 21.9496 24.9999C21.9496 23.9999 22.7495 23.1597 23.7897 23.1597H33.0297C34.0297 23.1597 34.8699 23.9596 34.8699 24.9999C34.8297 25.9999 33.9899 26.84 32.9899 26.84H32.9897ZM32.9897 18.12H23.7897C22.7897 18.12 21.9496 17.3201 21.9496 16.2799C21.9496 15.2399 22.7495 14.4397 23.7897 14.4397H33.0297C34.0297 14.4397 34.8699 15.2396 34.8699 16.2799C34.8699 17.3201 33.9899 18.12 32.9899 18.12H32.9897Z" fill="#56BB6F"/>
</svg>
