<svg width="28" height="32" viewBox="0 0 28 32" fill="none" xmlns="http://www.w3.org/2000/svg">
<path d="M13.545 7.36077C13.545 3.74472 10.601 0.800781 6.98503 0.800781C3.36903 0.800781 0.457031 3.74478 0.457031 7.36077C0.457031 10.9768 3.40103 13.8888 7.01704 13.8888C10.633 13.8888 13.545 10.9448 13.545 7.36077ZM7.01704 2.78466C7.65698 2.78466 8.20098 3.32864 8.20098 3.96861C8.20098 4.60858 7.65701 5.15255 7.01704 5.15255C6.37706 5.15255 5.83309 4.60858 5.83309 3.96861C5.80095 3.32866 6.34514 2.78466 7.01704 2.78466ZM8.10498 11.7127H5.89692C5.41701 11.7127 5.03286 11.3287 5.03286 10.8486C5.03286 10.3687 5.41679 9.98454 5.89692 9.98454H6.12103V7.68055H5.89692C5.41701 7.68055 5.03286 7.29661 5.03286 6.81649C5.03286 6.33658 5.41679 5.95243 5.89692 5.95243L6.98509 5.95266C7.465 5.95266 7.84915 6.33659 7.84915 6.81671V9.98477H8.07326C8.55317 9.98477 8.93732 10.3687 8.93732 10.8488C8.96901 11.3285 8.58508 11.7127 8.10497 11.7127L8.10498 11.7127Z" fill="#56BB6F"/>
<path d="M2.2168 25.4414V29.1854C2.2168 30.1133 2.82486 30.9454 3.7208 31.1374C4.96881 31.4253 6.08887 30.4653 6.08887 29.2494V24.7695H2.85674C2.50473 24.8015 2.2168 25.0894 2.2168 25.4414V25.4414Z" fill="#434557"/>
<path d="M26.9531 9.66423H15.0491C14.1212 12.8642 11.3371 15.2962 7.91311 15.6802V29.2802C7.91311 29.9842 7.689 30.6561 7.36914 31.2322H25.5771C26.6972 31.2322 27.5932 30.3362 27.5932 29.2162V10.3362C27.593 9.95202 27.3048 9.66406 26.9528 9.66406L26.9531 9.66423ZM23.7852 28.3522H11.7212C11.2092 28.3522 10.7933 27.9362 10.7933 27.4243C10.7933 26.9123 11.2094 26.4965 11.7212 26.4965H23.7852C24.2973 26.4965 24.7131 26.9125 24.7131 27.4243C24.7131 27.9362 24.2973 28.3522 23.7852 28.3522ZM23.7852 23.6801H11.7212C11.2092 23.6801 10.7933 23.264 10.7933 22.7522C10.7933 22.2402 11.2094 21.8243 11.7212 21.8243H23.7852C24.2973 21.8243 24.7131 22.2404 24.7131 22.7522C24.7131 23.2643 24.2973 23.6801 23.7852 23.6801ZM23.7852 19.0082H11.7212C11.2092 19.0082 10.7933 18.5922 10.7933 18.0803C10.7933 17.5683 11.2094 17.1525 11.7212 17.1525H23.7852C24.2973 17.1525 24.7131 17.5685 24.7131 18.0803C24.7131 18.5922 24.2973 19.0082 23.7852 19.0082ZM23.7852 14.3361H17.0332C16.5212 14.3361 16.1053 13.92 16.1053 13.4082C16.1053 12.8962 16.5214 12.4803 17.0332 12.4803H23.7852C24.2973 12.4803 24.7131 12.8964 24.7131 13.4082C24.7131 13.9203 24.2973 14.3361 23.7852 14.3361Z" fill="#434557"/>
</svg>
