<svg width="40" height="40" viewBox="0 0 40 40" fill="none" xmlns="http://www.w3.org/2000/svg">
<path d="M31.5175 18.8643C30.5255 19.8244 29.2135 20.4324 27.7735 20.4324C26.3335 20.4324 25.0215 19.8565 24.0294 18.8643C22.9734 19.2482 22.0774 19.9523 21.4375 20.8483C21.6935 21.1683 22.3976 21.8724 24.0935 22.0643C24.8616 22.1284 25.4375 22.7683 25.4375 23.5683L25.4373 26.0643C25.4373 26.3203 25.4054 26.5764 25.3732 26.8324H34.5572C34.9093 26.8324 35.1653 26.5444 35.1653 26.2243V24.2083C35.1974 21.7444 33.6615 19.6643 31.5175 18.8643L31.5175 18.8643Z" fill="#434557"/>
<path d="M23.4218 14.5125C23.4218 17.1044 25.3738 19.2165 27.7738 19.2165C30.1738 19.2165 32.1258 17.1044 32.1258 14.5125C32.1258 14.2565 32.1258 14.0004 32.0939 13.7765C32.7979 11.7285 32.4459 7.98454 31.1019 8.56048C29.9499 9.07254 23.5819 7.44037 23.9659 10.1285C22.4619 10.1926 23.2619 13.1044 23.422 13.7446C23.4217 14.0006 23.4217 14.2567 23.4217 14.5125H23.4218ZM24.7658 14.6406C24.9258 14.6406 25.0538 14.5127 25.0538 14.3527C24.9578 13.6487 24.8296 11.8886 25.4377 12.0487C26.2057 12.2406 27.0377 12.4647 27.8057 12.4647C28.5738 12.4647 29.3738 12.2406 30.1738 12.0487C30.7818 11.8886 30.6537 13.6487 30.5577 14.3527C30.5258 14.5127 30.6856 14.6406 30.8457 14.6406L31.1017 14.6087C31.0376 16.5607 29.5977 18.1288 27.8057 18.1288C26.0137 18.1288 24.5738 16.5607 24.5097 14.6087L24.7658 14.6406Z" fill="#56BB6F"/>
<path d="M15.9021 22.0638C17.5981 21.9038 18.334 21.1678 18.5581 20.8478C18.0782 20.1756 17.4701 19.6317 16.7661 19.2158C16.2221 19.2477 15.6782 19.2799 15.1342 19.2799H15.0382C14.1422 19.9839 13.1502 20.3678 12.1902 20.3678C11.2301 20.3678 10.2382 19.9839 9.34219 19.2799H9.24621C8.73415 19.2799 8.19021 19.248 7.61426 19.2158C5.88638 20.2078 4.73438 22.0638 4.73438 24.1759V26.1919C4.73438 26.5439 5.02232 26.8 5.34243 26.8H14.5264C14.5581 26.5759 14.5581 26.3199 14.5581 26.0638V23.5678C14.5581 22.7678 15.134 22.1279 15.9021 22.0638H15.9021Z" fill="#434557"/>
<path d="M6.17228 17.8722C7.1964 18.0323 8.47628 18.1602 9.78834 18.1283C10.5243 18.8323 11.3883 19.2484 12.1883 19.2484C12.9883 19.2484 13.8524 18.8323 14.5883 18.1283C15.9004 18.1602 17.2125 18.0323 18.2044 17.8722C18.5883 17.8082 18.6524 17.3283 18.3004 17.1363C17.5323 16.7202 16.7964 15.8883 16.7964 14.1282C16.7964 8.6883 13.5323 8.01624 12.1883 8.65613C10.8124 8.01618 7.58026 8.68805 7.58026 14.1282C7.58026 15.8883 6.84432 16.7202 6.07626 17.1363C5.72425 17.2963 5.82046 17.8084 6.17225 17.8722H6.17228ZM9.2444 13.7444C10.5565 13.6803 12.4125 12.9763 13.5004 11.7283C13.8205 12.4642 14.3964 13.0404 15.1323 13.3602C15.1643 13.6803 15.1643 14.0002 15.1643 14.3844C15.1643 16.4642 13.3723 18.1924 12.1884 18.1924C11.0044 18.1924 9.21249 16.4964 9.21249 14.3844C9.24441 14.1283 9.24441 13.9364 9.24441 13.7444L9.2444 13.7444Z" fill="#56BB6F"/>
<path d="M23.9989 23.2481C21.1509 22.9601 20.319 21.3279 20.2868 21.232C20.2228 21.136 20.1268 21.04 19.9989 21.04C19.871 21.04 19.7748 21.1041 19.7109 21.232C19.679 21.2961 18.8469 22.9599 15.9989 23.2481C15.8388 23.28 15.7109 23.4081 15.7109 23.5682V26.0639C15.7109 29.328 19.679 31.408 19.8388 31.5039C19.9029 31.5041 19.9669 31.5041 19.9989 31.5041C20.0308 31.5041 20.0948 31.5041 20.1268 31.4722C20.2868 31.3762 24.2546 29.3282 24.2546 26.0322V23.5362C24.2868 23.376 24.1589 23.2481 23.9988 23.2481L23.9989 23.2481ZM22.2388 26.672C22.2388 26.7679 22.1748 26.832 22.0788 26.832H20.5748V28.3041C20.5748 28.4001 20.5107 28.4642 20.4147 28.4642H19.5507C19.4547 28.4642 19.3906 28.4001 19.3906 28.3041V26.8001H17.8866C17.7907 26.8001 17.7266 26.7361 17.7266 26.6401V25.776C17.7266 25.68 17.7907 25.616 17.8866 25.616H19.3906L19.3909 24.1441C19.3909 24.0481 19.4549 23.984 19.5509 23.984H20.415C20.5109 23.984 20.575 24.0481 20.575 24.1441V25.6481H22.079C22.175 25.6481 22.2391 25.7121 22.2391 25.8081L22.2388 26.672Z" fill="#56BB6F"/>
</svg>
