<svg width="50" height="50" viewBox="0 0 50 50" fill="none" xmlns="http://www.w3.org/2000/svg">
<path d="M43.3407 22.7111L38.0605 18.6712V11.9111C38.0605 11.3911 37.6205 10.9511 37.1004 10.9511H35.4207C34.9006 10.9511 34.4607 11.3911 34.4607 11.9111V15.9111L26.1007 9.43122C25.4606 8.95131 24.5407 8.95131 23.9006 9.43122L6.70058 22.7112C6.30047 22.9913 6.06052 23.4311 6.02062 23.9113C5.94054 24.3912 6.10069 24.8713 6.38055 25.2313C6.70059 25.6314 7.26055 25.9112 7.58062 25.9112L11.4208 25.911V39.2709C11.4208 40.231 12.1808 40.9908 13.1406 40.9908H21.1806V29.6308C21.1806 29.1908 21.5406 28.7907 22.0208 28.7907H28.0607C28.5007 28.7907 28.9008 29.1506 28.9008 29.6308V40.9908H36.9408C37.9009 40.9908 38.6607 40.2307 38.6607 39.2709L38.661 25.911H42.301C42.8211 25.911 43.341 25.671 43.7012 25.231C44.2609 24.4709 44.101 23.3111 43.341 22.7109L43.3407 22.7111Z" fill="#56BB6F"/>
</svg>
