<svg width="50" height="50" viewBox="0 0 50 50" fill="none" xmlns="http://www.w3.org/2000/svg">
<path d="M34.2011 15.2142C30.8412 15.2142 27.8811 16.8941 26.1211 19.4541C27.161 20.134 27.841 21.2942 27.841 22.6139V25.374C27.841 26.2939 27.3209 27.1341 26.5608 27.5338V31.0938C28.3607 33.3338 31.1208 34.7738 34.2008 34.7738C39.601 34.7738 44.0008 30.3737 44.0008 24.9739C44.0011 19.6139 39.601 15.2139 34.2008 15.2139L34.2011 15.2142ZM33.801 24.0941H34.6009C36.3208 24.0941 37.681 25.5741 37.5209 27.3341C37.4009 28.6541 36.361 29.6541 35.0809 29.8941V31.0539C35.0809 31.1739 34.9609 31.2939 34.8409 31.2939H33.5209C33.4009 31.2939 33.2809 31.1739 33.2809 31.0539V29.8941C31.9609 29.694 30.9609 28.6139 30.8409 27.254C30.8409 27.134 30.9609 27.014 31.0809 27.014H32.4009C32.5209 27.014 32.6009 27.0941 32.6408 27.2141C32.7209 27.7741 33.2008 28.1742 33.7609 28.1742H34.5209C35.0809 28.1742 35.601 27.774 35.6808 27.2141C35.8008 26.4942 35.2408 25.8941 34.5608 25.8941H33.8808C32.3607 25.8941 30.9609 24.7741 30.8409 23.254C30.681 21.6542 31.801 20.3341 33.2809 20.054V18.8941C33.2809 18.7741 33.4009 18.6541 33.5208 18.6541H34.8408C34.9608 18.6541 35.0808 18.7741 35.0808 18.8941V20.054C36.4008 20.254 37.4008 21.3341 37.5208 22.694C37.5208 22.814 37.4008 22.934 37.2809 22.934H35.9608C35.8409 22.934 35.7608 22.8539 35.7209 22.7339C35.6408 22.2138 35.1609 21.7739 34.6009 21.7739H33.8408C33.2808 21.7739 32.7607 22.174 32.6407 22.7339C32.5609 23.494 33.1209 24.0941 33.8009 24.0941H33.801Z" fill="#434557"/>
<path d="M16.681 30.3344H15.161C14.0011 30.3344 13.041 29.4145 13.0011 28.2543C10.9612 28.1343 9.04103 27.9742 7.28125 27.6943V33.0143C7.28125 34.0143 8.08118 34.8143 9.08118 34.8143H22.8012C23.8012 34.8143 24.6011 34.0143 24.6011 33.0143V27.6943C22.841 27.9745 20.961 28.1743 18.8812 28.2543C18.8413 29.4145 17.8812 30.3344 16.6812 30.3344H16.681Z" fill="#56BB6F"/>
<path d="M24.0801 20.8146H20.12V19.4946C20.12 18.0944 19 16.9346 17.56 16.9346H14.2799C12.8797 16.9346 11.7199 18.0944 11.7199 19.4946V20.8146H7.79993C6.79993 20.8146 6 21.6145 6 22.6145V25.3746C6 25.6145 6.15988 25.8545 6.40011 25.8946C8.11997 26.2147 10.2801 26.4945 13 26.6145C13 25.4144 13.96 24.4546 15.2 24.4546H16.7201C17.9202 24.4546 18.88 25.4147 18.9202 26.6145C21.6002 26.4945 23.8002 26.2144 25.4802 25.8544C25.7202 25.8145 25.8803 25.6145 25.8803 25.3343L25.88 22.6145C25.88 21.6145 25.0801 20.8146 24.0801 20.8146H24.0801ZM17.9601 20.6547H13.9199V19.4948C13.9199 19.2948 14.0798 19.1349 14.2799 19.1349H17.56C17.7601 19.1349 17.9601 19.2948 17.9601 19.4948L17.9601 20.6547Z" fill="#56BB6F"/>
<path d="M16.6816 28.7338C17.0017 28.7338 17.2416 28.4938 17.2416 28.1738V26.6537C17.2416 26.3337 17.0016 26.0938 16.6816 26.0938H15.1615C14.8415 26.0938 14.6016 26.3337 14.6016 26.6537V28.1738C14.6016 28.4938 14.8415 28.7338 15.1615 28.7338H16.6816Z" fill="#56BB6F"/>
</svg>
