<svg width="40" height="40" viewBox="0 0 40 40" fill="none" xmlns="http://www.w3.org/2000/svg">
<path d="M12.6973 12.6471C14.2332 12.6471 15.4493 11.3991 15.4493 9.89506C15.4493 8.39106 14.2013 7.14307 12.6973 7.14307C11.1614 7.14307 9.94531 8.39106 9.94531 9.89506C9.94531 11.3991 11.1933 12.6471 12.6973 12.6471Z" fill="#56BB6F"/>
<path d="M16.6408 18.8552V16.6152C16.6408 14.8233 15.2008 13.3833 13.4088 13.3833H11.6488C9.85684 13.3833 8.41684 14.8232 8.41684 16.6152V18.8552H5.66484C5.18493 18.8552 4.80078 19.2391 4.80078 19.7192C4.80078 20.1992 5.18471 20.5833 5.66484 20.5833H18.5928C18.5288 19.9752 18.6888 19.3672 19.0089 18.8554L16.6408 18.8552Z" fill="#434557"/>
<path d="M30.6564 9.89506C30.6564 11.4149 29.4243 12.6471 27.9044 12.6471C26.3845 12.6471 25.1523 11.4149 25.1523 9.89506C25.1523 8.37518 26.3845 7.14307 27.9044 7.14307C29.4243 7.14307 30.6564 8.37518 30.6564 9.89506Z" fill="#56BB6F"/>
<path d="M34.9764 16.7112C34.8804 16.5833 32.7042 13.3833 27.8724 13.3833C25.1206 13.3831 23.8404 15.2072 22.9125 16.5192C22.7846 16.7112 22.6565 16.9032 22.5286 17.0632C21.6326 18.2793 20.3846 19.3353 20.3846 19.3353C19.8725 19.7833 19.8087 20.5514 20.2567 21.0954C20.7047 21.6074 21.4727 21.6713 22.0167 21.2233C22.0808 21.1592 23.4889 19.9753 24.5446 18.5353C24.6725 18.3434 24.8326 18.1514 24.9607 17.9595L24.9288 21.9595L23.3607 25.9275C23.2967 26.0876 23.2647 26.2476 23.2647 26.4396L23.2004 31.4952C23.2004 32.2632 23.8085 32.8711 24.5763 32.8711C25.3444 32.8711 25.9522 32.263 25.9522 31.4952L25.9841 26.6952L27.5522 22.7592H28.1281L28.2241 31.5272C28.2241 32.2953 28.864 32.9031 29.6 32.9031H29.6319C30.3999 32.9031 31.0078 32.2632 31.0078 31.4951L30.8803 22.2151V21.0311C30.9763 21.2871 31.1363 21.4791 31.3924 21.6392C31.5843 21.7671 31.8084 21.8311 32.0323 21.8311C32.4484 21.8311 32.8643 21.607 33.0883 21.2231L35.0084 18.0231C35.2645 17.6389 35.2645 17.1271 34.9763 16.711L34.9764 16.7112ZM30.9764 19.9431C30.9444 20.0072 30.9123 20.071 30.8804 20.1351L30.8485 16.4871C31.5525 16.8072 32.0965 17.223 32.4165 17.5431L30.9764 19.9431Z" fill="#434557"/>
<path d="M12.5142 22.5352C9.89004 22.5352 7.74609 24.6792 7.74609 27.3032C7.74609 29.9273 9.89009 32.0713 12.5142 32.0713C15.1383 32.0713 17.2822 29.9273 17.2822 27.3032C17.282 24.6793 15.1702 22.5352 12.5142 22.5352ZM13.2501 29.7992C13.2501 30.1831 12.93 30.5032 12.5461 30.5032C12.1622 30.5032 11.8421 30.1831 11.8421 29.7992V27.1432C11.8421 26.7592 12.1622 26.4392 12.5461 26.4392C12.93 26.4392 13.2501 26.7592 13.2501 27.1432V29.7992ZM12.5142 25.9273C12.0021 25.9273 11.6182 25.5112 11.6182 25.0313C11.6182 24.5192 12.0342 24.1353 12.5142 24.1353C13.0262 24.1353 13.4102 24.5513 13.4102 25.0313C13.4421 25.5112 13.0262 25.9273 12.5142 25.9273Z" fill="#56BB6F"/>
</svg>
