<svg width="40" height="40" viewBox="0 0 40 40" fill="none" xmlns="http://www.w3.org/2000/svg">
<path d="M12.8036 11.136H21.2516C21.5717 11.136 21.8597 10.88 21.8597 10.528V8.12798C21.8597 7.80789 21.6037 7.51992 21.2516 7.51992H19.8436C19.7795 6.01592 18.5315 4.7998 17.0275 4.7998C15.4915 4.7998 14.2755 6.01586 14.2114 7.51992H12.8034C12.4833 7.51992 12.1953 7.77595 12.1953 8.12798V10.528C12.1955 10.8481 12.4835 11.136 12.8036 11.136ZM17.0275 6.59203C17.6356 6.59203 18.1154 7.07194 18.1154 7.67998C18.1154 8.28801 17.6355 8.76792 17.0275 8.76792C16.4194 8.76792 15.9395 8.28801 15.9395 7.67998C15.9395 7.07194 16.4195 6.59203 17.0275 6.59203Z" fill="#56BB6F"/>
<path d="M20.8693 21.9839C23.3653 21.7279 24.1012 20.4799 24.1012 20.4799C24.4852 19.6799 25.3173 19.1679 26.2133 19.1679V10.5279C26.2133 9.79193 25.6374 9.21582 24.9012 9.21582H23.4291V10.5598C23.4291 11.7759 22.4372 12.7357 21.2532 12.7357L12.8052 12.7359C11.5892 12.7359 10.6294 11.7759 10.6294 10.56V9.21604H9.25346C8.51752 9.21604 7.94141 9.8241 7.94141 10.5281V28.8641C7.94141 29.6 8.51729 30.1761 9.25346 30.1761H19.0775C18.8534 29.504 18.7255 28.7681 18.7255 27.9681L18.725 24.3199C18.7572 23.104 19.6531 22.0799 20.869 21.9839L20.8693 21.9839Z" fill="#434557"/>
<path d="M31.3988 23.7116C27.8787 23.3596 26.8229 21.3435 26.7908 21.2475C26.6948 21.0234 26.4707 20.8955 26.2468 20.8955C26.0227 20.8955 25.7988 21.0234 25.7028 21.2475C25.6709 21.3435 24.6149 23.3596 21.0948 23.7116C20.7747 23.7435 20.5508 23.9995 20.5508 24.3196V27.9676C20.5508 32.3196 25.7668 35.0396 25.9907 35.1676C26.0867 35.1996 26.1827 35.2317 26.2787 35.2317C26.3747 35.2317 26.4706 35.1998 26.5666 35.1676C26.7907 35.0397 32.0066 32.3196 32.0066 27.9676L32.0068 24.3196C31.9427 23.9998 31.6867 23.7437 31.3987 23.7116H31.3988ZM28.9028 27.4877L26.1508 30.2397C25.9908 30.3997 25.7669 30.4957 25.5428 30.4957C25.3186 30.4957 25.0948 30.3997 24.9347 30.2397L23.4948 28.7997C23.1427 28.4477 23.1427 27.9037 23.4948 27.5837C23.8468 27.2317 24.3908 27.2317 24.7108 27.5837L25.5428 28.4156L27.6868 26.2716C28.0388 25.9196 28.5828 25.9196 28.9028 26.2716C29.2548 26.5917 29.2548 27.1357 28.9028 27.4877Z" fill="#56BB6F"/>
</svg>
