<svg width="40" height="40" viewBox="0 0 40 40" fill="none" xmlns="http://www.w3.org/2000/svg">
<path d="M31.6851 12.2189H19.5891L15.2371 16.5709C14.725 17.0829 14.021 17.3709 13.2531 17.3709C12.5172 17.3709 11.8132 17.0829 11.2692 16.5389L8.45312 13.7229V29.9789C8.45312 30.5869 8.96518 31.099 9.57324 31.099H31.6852C32.2933 31.099 32.8054 30.5869 32.8054 29.9789L32.8049 13.3389C32.8049 12.6989 32.325 12.2188 31.685 12.2188L31.6851 12.2189ZM28.2291 22.7789H25.3492C24.9331 22.7789 24.5492 22.5228 24.3572 22.1708L23.0132 19.4507L19.301 26.9067C19.109 27.2906 18.7251 27.5148 18.309 27.5148C17.893 27.5148 17.509 27.2906 17.3171 26.9067L15.2691 22.7788H13.061C12.453 22.7788 11.9409 22.2989 11.9409 21.6587C11.9409 21.0506 12.4529 20.5386 13.061 20.5386H15.9409C16.357 20.5386 16.7409 20.7946 16.9328 21.1466L18.2768 23.8986L21.9889 16.4106C22.1809 16.0267 22.5648 15.8026 22.9808 15.8026C23.3969 15.8026 23.7808 16.0586 23.9728 16.4106L26.0208 20.5385H28.2288C28.8369 20.5385 29.349 21.0506 29.349 21.6586C29.317 22.2988 28.8371 22.7788 28.2291 22.7788V22.7789Z" fill="#292B3F"/>
<path d="M13.6676 15.0031L18.4676 10.2031C19.9397 8.73101 19.6515 6.17118 17.6035 5.11518C16.3875 4.47523 14.8834 4.85915 13.9236 5.81918L13.2837 6.45912L12.5478 5.72318C11.0756 4.25106 8.51582 4.53923 7.45982 6.58723C6.81987 7.80329 7.20379 9.30735 8.16382 10.2671L12.8678 14.9711C13.0917 15.2272 13.4437 15.2272 13.6676 15.003V15.0031Z" fill="#56BB6F"/>
<path d="M24.9318 32.8271H16.3558C15.6837 32.8271 15.1719 33.3711 15.1719 34.0111C15.1719 34.6511 15.7158 35.195 16.3558 35.195H24.9318C25.6039 35.195 26.1157 34.6511 26.1157 34.0111C26.116 33.3711 25.572 32.8271 24.932 32.8271H24.9318Z" fill="#56BB6F"/>
</svg>
