<svg width="50" height="50" viewBox="0 0 50 50" fill="none" xmlns="http://www.w3.org/2000/svg">
<path d="M32.5998 30.9293C30.7198 27.6893 27.4798 22.0093 26.5998 20.2893C25.6398 18.4093 25.2798 16.2092 25.5998 14.0493L23.44 12.8493C23.0801 12.6492 22.7201 12.6492 22.3599 12.8493L16.7601 16.0091V14.8493C16.7601 14.4491 16.44 14.1294 16.0402 14.1294H13.5603C13.1602 14.1294 12.8404 14.4494 12.8404 14.8493V18.2494L6.55999 21.7692C6.20005 21.9693 6 22.3292 6 22.7293V24.0493C6 24.6492 6.47991 25.1293 7.08007 25.1293H9.72014V40.5693C9.72014 41.5693 10.5201 42.3294 11.4802 42.3294H34.2002C35.2002 42.3294 36.0001 41.5295 36.0001 40.5693V32.9693C34.6 32.889 33.2803 32.1289 32.6 30.9292L32.5998 30.9293Z" fill="#56BB6F"/>
<path d="M43.1199 11.9695C41.1598 8.0895 36.4399 6.5295 32.5199 8.48957C28.6399 10.4496 27.1197 15.3297 29.0399 19.0496C29.8801 20.6897 33.1998 26.4896 34.9599 29.5296C35.4398 30.3697 36.6797 30.3697 37.1599 29.5296C38.92 26.4897 42.1999 20.6896 43.12 19.0496C44.3198 16.8495 44.2799 14.2895 43.1197 11.9695H43.1199ZM36.0799 18.9296C34.1999 18.9296 32.6798 17.4095 32.6798 15.5294C32.6798 13.6494 34.1999 12.1293 36.0799 12.1293C37.9599 12.1293 39.4801 13.6494 39.4801 15.5294C39.52 17.4094 37.9999 18.9296 36.0799 18.9296Z" fill="#434557"/>
</svg>
