<svg width="28" height="32" viewBox="0 0 28 32" fill="none" xmlns="http://www.w3.org/2000/svg">
<path d="M14.0005 3.46479H10.0005L11.0884 2.37685C11.4404 2.02483 11.4404 1.41679 11.0884 1.06479C10.7364 0.712778 10.1284 0.712778 9.77638 1.06479L7.12038 3.72079C6.96034 3.88083 6.83243 4.13686 6.83243 4.3929C6.83243 4.64893 6.92842 4.87281 7.12038 5.06502L9.77638 7.72101C9.96835 7.91298 10.1924 8.00896 10.4485 8.00896C10.6726 8.00896 10.9284 7.91298 11.1206 7.72101C11.4726 7.369 11.4726 6.76096 11.1206 6.40896L10.0327 5.32102L14.0006 5.32079C20.6245 5.32079 26.0005 10.6967 26.0005 17.3208C26.0005 23.9448 20.6247 29.3528 14.0006 29.3528C7.37644 29.3528 2.00055 23.9769 2.00055 17.3528C2.00055 13.9927 3.34455 10.8888 5.80861 8.58479C6.19254 8.23278 6.19254 7.65691 5.84053 7.27273C5.48852 6.8888 4.91264 6.8888 4.52847 7.24082C1.74453 9.83298 0.144531 13.5128 0.144531 17.3528C0.144531 25.0008 6.35253 31.2088 14.0005 31.2088C21.6485 31.2088 27.8565 25.0008 27.8565 17.3528C27.8565 9.70481 21.6485 3.46482 14.0005 3.46482L14.0005 3.46479Z" fill="#434557"/>
<path d="M13.9999 25.5134C18.5119 25.5134 22.1599 21.8654 22.1599 17.3534C22.1599 12.8413 18.5119 9.19336 13.9999 9.19336C9.48785 9.19336 5.83984 12.8414 5.83984 17.3534C5.83984 21.8335 9.48785 25.5134 13.9999 25.5134ZM10.4797 16.3294C10.9277 15.8814 11.6637 15.8814 12.1117 16.3294L13.2318 17.4495L15.9197 14.7615C16.3677 14.3135 17.1037 14.3135 17.5517 14.7615C17.9997 15.2095 17.9997 15.9455 17.5517 16.3935L14.0316 19.9136C13.8075 20.1377 13.5195 20.2337 13.2316 20.2337C12.9436 20.2337 12.6557 20.1377 12.4316 19.9136L10.4798 17.9614C10.0318 17.5134 10.0318 16.7774 10.4798 16.3294L10.4797 16.3294Z" fill="#56BB6F"/>
</svg>
