<svg width="50" height="50" viewBox="0 0 50 50" fill="none" xmlns="http://www.w3.org/2000/svg">
<path d="M23.8412 18.8805H33.0412C34.0412 18.8805 34.8813 18.0403 34.8813 17.0403C34.8813 16.0403 34.0412 15.2002 33.0412 15.2002L19.5212 15.2005C12.4411 15.2005 9.20121 19.9203 9.04121 20.1204C8.60119 20.7605 8.64109 21.6003 9.08111 22.2005L12.2812 26.6804C12.6411 27.2005 13.2011 27.4405 13.7611 27.4405C14.121 27.4405 14.5212 27.3205 14.8412 27.0805C14.9212 27.0005 15.0412 26.9207 15.1213 26.8406V28.1207L14.0013 41.7207C13.9212 42.8407 14.7212 43.8407 15.8813 43.9208C17.0013 44.0009 18.0013 43.2009 18.0814 42.0408L19.1614 28.9608H19.9614L21.001 42.1208C21.0811 43.2008 21.9611 44.0008 23.0409 44.0008H23.2008C24.3208 43.9207 25.1609 42.9207 25.0808 41.8007L23.9608 28.2007L23.8412 18.8805ZM15.1212 24.4005L12.9211 21.2805C13.4412 20.8006 14.1611 20.2406 15.1611 19.8006L15.1212 24.4005ZM20.6011 24.2005L19.6411 25.2404C19.561 25.3205 19.4011 25.3205 19.321 25.2404L18.4014 24.2005C18.3615 24.1606 18.3615 24.0805 18.3615 24.0406L19.1614 18.2805H18.8015C18.6815 18.2805 18.6014 18.2005 18.6014 18.0805V16.8804C18.6014 16.7604 18.6815 16.6804 18.8015 16.6804H20.2814C20.4014 16.6804 20.4815 16.7604 20.4815 16.8804V18.0805C20.4815 18.2005 20.4014 18.2805 20.2814 18.2805H19.9215L20.7214 24.0406C20.6812 24.0805 20.6413 24.1603 20.6011 24.2005H20.6011Z" fill="#434557"/>
<path d="M23.6013 10.0801C23.6013 12.3334 21.7748 14.1598 19.5215 14.1598C17.2681 14.1598 15.4414 12.3334 15.4414 10.0801C15.4414 7.82671 17.2681 6 19.5215 6C21.7748 6 23.6013 7.82671 23.6013 10.0801Z" fill="#56BB6F"/>
<path d="M35.8401 29.4C35.8401 30.2401 35.1601 30.92 34.32 30.92H33.1602C32.32 30.92 31.6401 30.2401 31.6401 29.4V29.3199C30.2001 29.2398 28.6401 29.1198 27.1602 28.8799V33.0397C27.1602 33.7998 27.76 34.3996 28.5201 34.3996H38.8801C39.6402 34.3996 40.24 33.7998 40.24 33.0397V28.9197C38.7601 29.1597 37.2001 29.2797 35.8 29.3598V29.3999L35.8401 29.4Z" fill="#56BB6F"/>
<path d="M39.9219 23.8799H36.9219V22.8799C36.9219 21.7998 36.0419 20.96 35.002 20.96H32.522C31.442 20.96 30.6021 21.84 30.6021 22.8799V23.8799H27.6021C26.842 23.8799 26.2422 24.4798 26.2422 25.2398V27.3199C26.2422 27.5199 26.3622 27.6798 26.5622 27.72C27.8822 27.9599 29.6022 28.1999 31.6822 28.28C31.6822 27.4398 32.3622 26.8 33.2023 26.8H34.3622C35.2023 26.8 35.8421 27.48 35.8822 28.28C37.9623 28.1999 39.6822 27.9599 41.0022 27.72C41.2023 27.6801 41.3223 27.5199 41.3223 27.3199V25.2398C41.2821 24.4797 40.6819 23.8799 39.9219 23.8799ZM35.4021 23.8799H32.122V22.8799C32.122 22.6399 32.322 22.4798 32.5221 22.4798H35.002C35.242 22.4798 35.4021 22.6798 35.4021 22.8799L35.4021 23.8799Z" fill="#56BB6F"/>
<path d="M34.3608 29.8399C34.6008 29.8399 34.8008 29.6398 34.8008 29.3999V28.2799C34.8008 28.0399 34.6008 27.8398 34.3608 27.8398H33.2408C33.0008 27.8398 32.8008 28.0399 32.8008 28.2799V29.3999C32.8008 29.6398 33.0008 29.8399 33.2408 29.8399H34.3608Z" fill="#56BB6F"/>
</svg>
