<svg width="50" height="50" viewBox="0 0 50 50" fill="none" xmlns="http://www.w3.org/2000/svg">
<path d="M6 16.8939V41.7339H21.36V15.2139H7.68C6.76007 15.2139 6 15.9739 6 16.8939ZM15.12 20.3741C15.12 19.9341 15.4799 19.614 15.8801 19.614H16.92C17.36 19.614 17.6801 19.9739 17.6801 20.3741V22.614C17.6801 23.054 17.3201 23.3741 16.92 23.3741H15.8801C15.4401 23.3741 15.12 23.0141 15.12 22.614V20.3741ZM15.12 27.3339C15.12 26.8939 15.4799 26.5739 15.8801 26.5739H16.92C17.36 26.5739 17.6801 26.9338 17.6801 27.3339V29.5739C17.6801 30.0139 17.3201 30.3339 16.92 30.3339H15.8801C15.4401 30.3339 15.12 29.974 15.12 29.5739V27.3339ZM15.12 34.3339C15.12 33.8939 15.4799 33.5739 15.8801 33.5739H16.92C17.36 33.5739 17.6801 33.9338 17.6801 34.3339V36.5739C17.6801 37.0139 17.3201 37.3339 16.92 37.3339H15.8801C15.4401 37.3339 15.12 36.974 15.12 36.5739V34.3339ZM9.71986 20.3739C9.71986 19.9339 10.0798 19.6139 10.4799 19.6139H11.5199C11.9599 19.6139 12.2799 19.9738 12.2799 20.3739V22.6139C12.2799 23.0539 11.9599 23.3739 11.5199 23.3739H10.4799C10.0399 23.3739 9.71986 23.014 9.71986 22.6139V20.3739ZM9.71986 27.3338C9.71986 26.8938 10.0798 26.5737 10.4799 26.5737H11.5199C11.9599 26.5737 12.2799 26.9337 12.2799 27.3338V29.5737C12.2799 30.0137 11.9599 30.3338 11.5199 30.3338H10.4799C10.0399 30.3338 9.71986 29.9739 9.71986 29.5737V27.3338ZM9.71986 34.3338C9.71986 33.8938 10.0798 33.5737 10.4799 33.5737H11.5199C11.9599 33.5737 12.2799 33.9337 12.2799 34.3338L12.2802 36.5737C12.2802 37.0138 11.9602 37.3338 11.5201 37.3338H10.4802C10.0402 37.3338 9.72014 36.9739 9.72014 36.5737L9.71986 34.3338Z" fill="#434557"/>
<path d="M42.3183 8.21401H24.9183C23.9984 8.21401 23.2383 8.97408 23.2383 9.89401V41.694H44.0383V9.93401C43.9984 8.97394 43.2384 8.21387 42.3184 8.21387L42.3183 8.21401ZM29.4783 36.574C29.4783 37.014 29.1183 37.3341 28.7182 37.3341H27.6783C27.2383 37.3341 26.9182 36.9741 26.9182 36.574V34.3341C26.9182 33.8941 27.2781 33.574 27.6783 33.574H28.7182C29.1582 33.574 29.4783 33.9339 29.4783 34.3341V36.574ZM29.4783 29.574C29.4783 30.014 29.1183 30.3341 28.7182 30.3341H27.6783C27.2383 30.3341 26.9182 29.9741 26.9182 29.574V27.3341C26.9182 26.8941 27.2781 26.574 27.6783 26.574H28.7182C29.1582 26.574 29.4783 26.9339 29.4783 27.3341V29.574ZM29.4783 22.6142C29.4783 23.0542 29.1183 23.3742 28.7182 23.3742H27.6783C27.2383 23.3742 26.9182 23.0143 26.9182 22.6142V20.3742C26.9182 19.9342 27.2781 19.6142 27.6783 19.6142H28.7182C29.1582 19.6142 29.4783 19.9741 29.4783 20.3742V22.6142ZM29.4783 15.6142C29.4783 16.0542 29.1183 16.3742 28.7182 16.3742H27.6783C27.2383 16.3742 26.9182 16.0143 26.9182 15.6142V13.3742C26.9182 12.9342 27.2781 12.6142 27.6783 12.6142H28.7182C29.1582 12.6142 29.4783 12.9741 29.4783 13.3742V15.6142ZM34.8784 36.5742C34.8784 37.0142 34.5185 37.3342 34.1184 37.3342H33.0784C32.6384 37.3342 32.3184 36.9743 32.3184 36.5742V34.3342C32.3184 33.8942 32.6783 33.5742 33.0784 33.5742H34.1184C34.5584 33.5742 34.8784 33.9341 34.8784 34.3342V36.5742ZM34.8784 29.5742C34.8784 30.0142 34.5185 30.3342 34.1184 30.3342H33.0784C32.6384 30.3342 32.3184 29.9743 32.3184 29.5742V27.3342C32.3184 26.8942 32.6783 26.5742 33.0784 26.5742H34.1184C34.5584 26.5742 34.8784 26.9341 34.8784 27.3342V29.5742ZM34.8784 22.6143C34.8784 23.0543 34.5185 23.3744 34.1184 23.3744H33.0784C32.6384 23.3744 32.3184 23.0144 32.3184 22.6143V20.3744C32.3184 19.9344 32.6783 19.6143 33.0784 19.6143H34.1184C34.5584 19.6143 34.8784 19.9742 34.8784 20.3744V22.6143ZM34.8784 15.6143C34.8784 16.0543 34.5185 16.3744 34.1184 16.3744H33.0784C32.6384 16.3744 32.3184 16.0144 32.3184 15.6143V13.3744C32.3184 12.9344 32.6783 12.6143 33.0784 12.6143H34.1184C34.5584 12.6143 34.8784 12.9742 34.8784 13.3744V15.6143ZM40.2786 36.5743C40.2786 37.0143 39.9186 37.3344 39.5185 37.3344H38.4786C38.0386 37.3344 37.7185 36.9744 37.7185 36.5743V34.3344C37.7185 33.8944 38.0784 33.5743 38.4786 33.5743H39.5185C39.9585 33.5743 40.2786 33.9342 40.2786 34.3344V36.5743ZM40.2786 29.5743C40.2786 30.0143 39.9186 30.3344 39.5185 30.3344H38.4786C38.0386 30.3344 37.7185 29.9744 37.7185 29.5743V27.3344C37.7185 26.8944 38.0784 26.5743 38.4786 26.5743H39.5185C39.9585 26.5743 40.2786 26.9342 40.2786 27.3344V29.5743ZM40.2786 22.6144C40.2786 23.0545 39.9186 23.3745 39.5185 23.3745H38.4786C38.0386 23.3745 37.7185 23.0146 37.7185 22.6144V20.3745C37.7185 19.9345 38.0784 19.6144 38.4786 19.6144H39.5185C39.9585 19.6144 40.2786 19.9744 40.2786 20.3745V22.6144ZM40.2786 15.6144C40.2786 16.0545 39.9186 16.3745 39.5185 16.3745H38.4786C38.0386 16.3745 37.7185 16.0146 37.7185 15.6144L37.7182 13.3745C37.7182 12.9345 38.0782 12.6144 38.4783 12.6144H39.5182C39.9582 12.6144 40.2783 12.9744 40.2783 13.3745L40.2786 15.6144Z" fill="#56BB6F"/>
</svg>
