<svg width="50" height="50" viewBox="0 0 50 50" fill="none" xmlns="http://www.w3.org/2000/svg">
<path d="M30.1596 11.0773C30.1596 10.1172 29.3995 9.35742 28.4397 9.35742H21.5597C20.5996 9.35742 19.8398 10.1175 19.8398 11.0773V13.4774H30.1998V11.0773H30.1596Z" fill="#434557"/>
<path d="M40.56 15.8369H9.44C7.52007 15.8369 6 17.3969 6 19.2769V37.2369C6 39.1568 7.56 40.6769 9.44 40.6769H40.52C42.4399 40.6769 43.96 39.1169 43.96 37.2369V19.2769C43.9999 17.3969 42.4399 15.8369 40.5599 15.8369H40.56ZM17.76 20.797C19.88 20.797 21.6001 22.5168 21.6001 24.6371C21.6001 26.7571 19.8803 28.4773 17.76 28.4773C15.64 28.4773 13.9199 26.7574 13.9199 24.6371C13.9199 22.5168 15.64 20.797 17.76 20.797V20.797ZM24.1199 35.357C24.1199 35.5969 23.9199 35.7571 23.7198 35.7571L11.7598 35.7568C11.5199 35.7568 11.3597 35.5568 11.3597 35.3567V33.5966C11.3597 31.4766 13.0796 29.7565 15.1998 29.7565H20.2398C22.3598 29.7565 24.0799 31.4763 24.0799 33.5966V35.357L24.1199 35.357ZM38.6399 35.1968C38.6399 35.477 38.4399 35.6767 38.16 35.6767H27.76C27.4799 35.6767 27.2801 35.4767 27.2801 35.1968V33.2769C27.2801 32.9968 27.4802 32.797 27.76 32.797H38.16C38.4402 32.797 38.6399 32.997 38.6399 33.2769V35.1968ZM38.6399 29.237C38.6399 29.5171 38.4399 29.7169 38.16 29.7169H27.76C27.4799 29.7169 27.2801 29.5168 27.2801 29.237V27.317C27.2801 27.0369 27.4802 26.8371 27.76 26.8371H38.16C38.4402 26.8371 38.6399 27.0372 38.6399 27.317V29.237ZM38.6399 23.2769C38.6399 23.557 38.4399 23.7568 38.16 23.7568H27.76C27.4799 23.7568 27.2801 23.5568 27.2801 23.2769V21.357C27.2801 21.0768 27.4802 20.8771 27.76 20.8771H38.16C38.4402 20.8771 38.6399 21.0771 38.6399 21.357V23.2769Z" fill="#56BB6F"/>
</svg>
