<svg width="32" height="30" viewBox="0 0 32 30" fill="none" xmlns="http://www.w3.org/2000/svg">
<path d="M30.6961 15.5398C30.376 12.9797 28.232 11.0918 25.672 11.0918H22.1518C19.624 11.0918 17.4478 13.0119 17.1599 15.5398L16.68 19.6358C16.6159 20.1798 16.936 20.6599 17.48 20.7878C17.9599 20.8838 18.44 20.9798 18.9521 21.0438L22.6961 18.2278C23.1441 17.9077 23.6562 17.7157 24.232 17.7157C25.32 17.7157 26.2801 18.4197 26.664 19.4436L27.2721 21.2677C28.36 21.1398 29.4161 21.0117 30.4401 20.7878C30.9522 20.6599 31.3042 20.1798 31.2401 19.6358L30.6961 15.5398Z" fill="#434557"/>
<path d="M28.6811 5.10727C28.6811 7.72288 26.5606 9.84322 23.9449 9.84322C21.3293 9.84322 19.209 7.72293 19.209 5.10727C19.209 2.49167 21.3293 0.371094 23.9449 0.371094C26.5605 0.371094 28.6811 2.49161 28.6811 5.10727Z" fill="#56BB6F"/>
<path d="M9.83244 18.9961H6.31232C3.75227 18.9961 1.60832 20.9162 1.28821 23.4441L0.8083 27.5401C0.744237 28.0841 1.09625 28.5642 1.6083 28.6921C3.6563 29.1401 5.80024 29.3642 8.0723 29.3642C10.3122 29.3642 12.4884 29.1401 14.5363 28.6921C15.0484 28.5642 15.4004 28.0841 15.3363 27.5401L14.8564 23.4441C14.5361 20.884 12.3921 18.9961 9.83228 18.9961H9.83244Z" fill="#434557"/>
<path d="M12.8081 13.0116C12.8081 15.6272 10.6878 17.7475 8.07211 17.7475C5.45651 17.7475 3.33594 15.6272 3.33594 13.0116C3.33594 10.3959 5.45645 8.27539 8.07211 8.27539C10.6877 8.27539 12.8081 10.3959 12.8081 13.0116Z" fill="#56BB6F"/>
<path d="M24.8084 20.0839C24.6805 19.6678 24.1684 19.508 23.8164 19.7638L19.5285 22.9959C19.1124 23.316 19.2084 23.9879 19.7204 24.1479L20.9365 24.5319C20.2644 26.452 19.0164 27.9879 17.4164 29.0439C17.2244 29.1718 17.2885 29.5238 17.5124 29.556C20.4882 30.068 23.4324 28.4359 24.4884 25.5879L25.7364 25.9718C26.2484 26.1319 26.7283 25.6518 26.5364 25.1399L24.8084 20.0839Z" fill="#56BB6F"/>
</svg>
