<svg width="50" height="50" viewBox="0 0 50 50" fill="none" xmlns="http://www.w3.org/2000/svg">
<path d="M25 6C14.52 6 6 14.52 6 25C6 35.48 14.52 44 25 44C35.48 44 44 35.48 44 25C44 14.52 35.48 6 25 6ZM34.04 31.84C34.04 32.1999 33.7599 32.4801 33.3999 32.4801L22.8799 32.4798V35.1199C22.8799 35.6399 22.2801 35.96 21.84 35.6399L15.4798 30.9198C15.1199 30.6798 15.1199 30.1597 15.4798 29.8799L21.8397 25.16C22.2797 24.84 22.8797 25.16 22.8797 25.6801V28.3202L33.4004 28.3199C33.7603 28.3199 34.0404 28.6 34.0404 28.96L34.04 31.84ZM34.5202 20.12L28.16 24.8801C27.72 25.2001 27.1201 24.8801 27.1201 24.36V21.7199H16.6C16.2401 21.7199 15.96 21.4398 15.96 21.0799V18.1599C15.96 17.8 16.2401 17.5199 16.6 17.5199H27.1201V14.8798C27.1201 14.3597 27.7199 14.0396 28.16 14.3597L34.5199 19.0796C34.8801 19.36 34.8801 19.8801 34.5202 20.12L34.5202 20.12Z" fill="#56BB6F"/>
</svg>
