<svg width="18" height="19" viewBox="0 0 18 19" fill="none" xmlns="http://www.w3.org/2000/svg">
<g clip-path="url(#clip0_2877_17481)">
<path d="M15 16.5312V15.0312C15 14.2356 14.6839 13.4725 14.1213 12.9099C13.5587 12.3473 12.7956 12.0313 12 12.0312H6C5.20435 12.0313 4.44129 12.3473 3.87868 12.9099C3.31607 13.4725 3 14.2356 3 15.0312V16.5312" stroke="#A1A4B1" stroke-width="2" stroke-linecap="round" stroke-linejoin="round"/>
<path d="M9 9.03125C10.6569 9.03125 12 7.6881 12 6.03125C12 4.3744 10.6569 3.03125 9 3.03125C7.34315 3.03125 6 4.3744 6 6.03125C6 7.6881 7.34315 9.03125 9 9.03125Z" stroke="#A1A4B1" stroke-width="2" stroke-linecap="round" stroke-linejoin="round"/>
</g>
<defs>
<clipPath id="clip0_2877_17481">
<rect width="18" height="18" fill="white" transform="translate(0 0.78125)"/>
</clipPath>
</defs>
</svg>
