<svg xmlns="http://www.w3.org/2000/svg" viewBox="0 0 36 36"><defs><style>.cls-1{fill:none;}</style></defs><g id="Layer_2" data-name="Layer 2"><g id="Layer_1-2" data-name="Layer 1"><path d="M18.75,15.5V17h-1.5V15.5h1.5M20,14.25H16v4h4v-4Z"/><path d="M24.75,15.5V17h-1.5V15.5h1.5M26,14.25H22v4h4v-4Z"/><path d="M12.75,21.5V23h-1.5V21.5h1.5M14,20.25H10v4h4v-4Z"/><path d="M18.75,21.5V23h-1.5V21.5h1.5M20,20.25H16v4h4v-4Z"/><path d="M24.75,21.5V23h-1.5V21.5h1.5M26,20.25H22v4h4v-4Z"/><path d="M13,13.25a.76.76,0,0,1-.75-.75v-5a.75.75,0,0,1,1.5,0v5A.76.76,0,0,1,13,13.25Z"/><path d="M23,13.25a.76.76,0,0,1-.75-.75v-5a.75.75,0,0,1,1.5,0v5A.76.76,0,0,1,23,13.25Z"/><rect x="14.5" y="9.25" width="7" height="1.5"/><path d="M28,9.25H24.5v1.5H28a.5.5,0,0,1,.5.5v16a.5.5,0,0,1-.5.5H8a.5.5,0,0,1-.5-.5v-16a.5.5,0,0,1,.5-.5h3.5V9.25H8a2,2,0,0,0-2,2v16a2,2,0,0,0,2,2H28a2,2,0,0,0,2-2v-16A2,2,0,0,0,28,9.25Z"/><rect class="cls-1" width="36" height="36"/></g></g></svg>