<svg width="154" height="156" viewBox="0 0 154 156" fill="none" xmlns="http://www.w3.org/2000/svg">
<path d="M2.8663 132.091C8.7143 146.362 18.2495 149.332 24.9536 146.362C37.9189 140.617 71.5984 134.199 106.188 149.286C152.001 169.268 161.748 139.12 147.127 108.625C132.506 78.1298 127.55 47.2909 144.406 30.3004C161.261 13.31 139.204 -13.2693 100.034 14.3979C74.7201 32.2774 56.143 28.2961 46.1671 23.2417C36.7651 18.478 26.309 13.4979 16.5127 17.3864C4.62586 22.1049 -0.0579185 32.3348 18.0273 55.1885C43.6557 87.5742 -10.2428 100.104 2.8663 132.091Z" fill="#A1D6AE" fill-opacity="0.3"/>
<path d="M26.6797 62.5742H117.692V132.568C117.692 132.711 117.636 132.848 117.535 132.948C117.434 133.049 117.297 133.106 117.155 133.106H27.2172C27.0746 133.106 26.9379 133.049 26.8371 132.948C26.7363 132.848 26.6797 132.711 26.6797 132.568V62.5742Z" fill="#9AD9A9"/>
<path d="M94.8603 35.1465H52.5413L26.6797 62.5754H117.692L94.8603 35.1465Z" fill="#56BB6F"/>
<path d="M35.2987 24.1738L52.5397 35.1455L26.6781 62.5744L7.08594 47.6844L35.2987 24.1738Z" fill="#75D08C"/>
<path d="M112.1 24.1738L94.8594 35.1455L117.692 62.5744L140.313 47.6844L112.1 24.1738Z" fill="#75D08C"/>
<path d="M63.6571 24.7341C64.1436 24.5034 64.5221 24.0936 64.7136 23.5903C64.905 23.0871 64.8945 22.5293 64.6843 22.0336L56.9283 3.74482C56.8185 3.48577 56.6574 3.25161 56.4547 3.05642C56.252 2.86123 56.012 2.70903 55.749 2.609C55.486 2.50896 55.2054 2.46314 54.9243 2.4743C54.6431 2.48545 54.3671 2.55335 54.1129 2.67391L52.6186 3.38244C52.3644 3.50299 52.1371 3.67371 51.9506 3.88434C51.764 4.09496 51.6219 4.34114 51.5329 4.60807C51.4439 4.875 51.4098 5.15717 51.4327 5.43761C51.4555 5.71806 51.5348 5.991 51.6659 6.24001L60.916 23.8201C61.1668 24.2967 61.592 24.6578 62.1028 24.8282C62.6136 24.9985 63.1705 24.9648 63.6571 24.7341Z" fill="#56BB6F"/>
<path d="M73.3795 22.9622C73.7317 22.9371 74.0605 22.7769 74.2973 22.5151C74.5341 22.2533 74.6606 21.9101 74.6503 21.5572L74.2672 8.53726C74.2617 8.35284 74.2191 8.17142 74.1417 8.0039C74.0644 7.83639 73.954 7.68624 73.8171 7.56249C73.6803 7.43874 73.5198 7.34393 73.3454 7.28378C73.171 7.22362 72.9862 7.19935 72.8022 7.21243L71.7204 7.28951C71.5364 7.3026 71.357 7.35276 71.1929 7.43696C71.0288 7.52116 70.8834 7.63767 70.7655 7.77948C70.6476 7.92129 70.5595 8.08548 70.5066 8.26218C70.4538 8.43888 70.4372 8.62445 70.4578 8.80773L71.9227 21.7507C71.9623 22.1016 72.1361 22.4236 72.4076 22.6494C72.6791 22.8752 73.0273 22.9872 73.3795 22.9622Z" fill="#56BB6F"/>
<path d="M80.8891 27.775C81.8577 28.3349 83.2173 27.8211 83.9714 26.6099L97.3622 5.1042C98.1621 3.81947 97.9726 2.25362 96.9453 1.65968L95.5134 0.831935C94.4861 0.237891 93.0344 0.854724 92.3201 2.18891L80.3612 24.5222C79.6877 25.7801 79.9205 27.2149 80.8891 27.775Z" fill="#56BB6F"/>
</svg>
