<svg xmlns="http://www.w3.org/2000/svg" viewBox="0 0 36 36">
    <defs>
        <style>.cls-1{fill:#828282;}</style>
    </defs>
    <g id="Layer_2" data-name="Layer 2">
        <g id="Layer_1-2" data-name="Layer 1">
            <path class="cls-1" d="M24.75,30H11.25A2.25,2.25,0,0,1,9,27.75V17.25A2.25,2.25,0,0,1,11.25,15h13.5A2.25,2.25,0,0,1,27,17.25v10.5A2.25,2.25,0,0,1,24.75,30ZM11.25,16.5a.76.76,0,0,0-.75.75v10.5a.76.76,0,0,0,.75.75h13.5a.76.76,0,0,0,.75-.75V17.25a.76.76,0,0,0-.75-.75Z"/>
            <path class="cls-1" d="M23.25,16.5a.76.76,0,0,1-.75-.75V12a4.5,4.5,0,0,0-9,0v3.75a.75.75,0,0,1-1.5,0V12a6,6,0,0,1,12,0v3.75A.76.76,0,0,1,23.25,16.5Z"/>
            <path class="cls-1" d="M18,21.91a1.76,1.76,0,1,1-1.75,1.75A1.75,1.75,0,0,1,18,21.91m0-1.25a3,3,0,1,0,3,3,3,3,0,0,0-3-3Z"/>
            <!-- <rect class="cls-1" width="36" height="36"/> -->
        </g>
    </g>
</svg>