<svg width="14" height="14" viewBox="0 0 14 14" fill="none" xmlns="http://www.w3.org/2000/svg">
<path d="M12.8022 9.8452V11.5907C12.8029 11.7528 12.7697 11.9132 12.7048 12.0616C12.6398 12.2101 12.5446 12.3434 12.4252 12.4529C12.3058 12.5625 12.1648 12.6459 12.0113 12.6978C11.8578 12.7497 11.6952 12.769 11.5338 12.7544C9.74337 12.5599 8.02354 11.9481 6.5125 10.9682C5.10667 10.0748 3.91477 8.88293 3.02145 7.4771C2.03812 5.9592 1.42618 4.231 1.23519 2.43253C1.22065 2.27164 1.23977 2.10947 1.29134 1.95637C1.34291 1.80327 1.42579 1.66258 1.5347 1.54326C1.64362 1.42394 1.77619 1.32861 1.92397 1.26334C2.07175 1.19806 2.2315 1.16427 2.39306 1.16412H4.13858C4.42095 1.16134 4.6947 1.26133 4.9088 1.44546C5.1229 1.62958 5.26274 1.88528 5.30227 2.16489C5.37594 2.72349 5.51257 3.27197 5.70955 3.79986C5.78784 4.00812 5.80478 4.23445 5.75838 4.45204C5.71197 4.66963 5.60416 4.86935 5.44773 5.02755L4.70879 5.76649C5.53707 7.22315 6.74317 8.42925 8.19984 9.25754L8.93878 8.5186C9.09697 8.36216 9.2967 8.25436 9.51429 8.20795C9.73188 8.16154 9.95821 8.17849 10.1665 8.25677C10.6944 8.45375 11.2428 8.59039 11.8014 8.66406C12.0841 8.70393 12.3422 8.8463 12.5267 9.06407C12.7112 9.28185 12.8093 9.55985 12.8022 9.8452Z" stroke="#52575C" stroke-width="1.16368" stroke-linecap="round" stroke-linejoin="round"/>
</svg>
