<svg xmlns="http://www.w3.org/2000/svg" viewBox="0 0 36 36"><defs><style>.cls-1{fill:#cbeeff;}.cls-2{fill:#fff;}.cls-3{fill:#333;}.cls-4{fill:#00a8fe;}.cls-5{fill:none;}</style></defs><g id="Layer_2" data-name="Layer 2"><g id="Layer_1-2" data-name="Layer 1"><circle class="cls-1" cx="18" cy="18" r="16"/><path class="cls-2" d="M26,13.39c0-.51,0-1,0-1.46a.66.66,0,0,0-.66-.67,9.2,9.2,0,0,1-6.82-2.57.66.66,0,0,0-.92,0,9.2,9.2,0,0,1-6.82,2.57.66.66,0,0,0-.66.67c0,.46,0,1,0,1.46C10,18.17,9.82,24.7,17.78,27.46a.63.63,0,0,0,.44,0C26.18,24.7,26.05,18.17,26,13.39Z"/><path class="cls-3" d="M18,9a.15.15,0,0,1,.11.05,9.67,9.67,0,0,0,7.17,2.71.16.16,0,0,1,.16.17c0,.46,0,.94,0,1.47.1,4.88.21,11-7.41,13.59H18c-7.62-2.64-7.51-8.71-7.41-13.59,0-.51,0-1,0-1.47a.16.16,0,0,1,.16-.17,9.63,9.63,0,0,0,7.16-2.71A.17.17,0,0,1,18,9m0-.5a.63.63,0,0,0-.46.19,9.2,9.2,0,0,1-6.82,2.57.66.66,0,0,0-.66.67c0,.46,0,1,0,1.46C10,18.17,9.82,24.7,17.78,27.46a.63.63,0,0,0,.44,0c8-2.76,7.83-9.29,7.74-14.07,0-.51,0-1,0-1.46a.66.66,0,0,0-.66-.67,9.2,9.2,0,0,1-6.82-2.57A.63.63,0,0,0,18,8.5Z"/><circle class="cls-4" cx="18" cy="18" r="3.75"/><path class="cls-3" d="M18,14.5A3.5,3.5,0,1,1,14.5,18,3.5,3.5,0,0,1,18,14.5m0-.5a4,4,0,1,0,4,4,4,4,0,0,0-4-4Z"/><path class="cls-2" d="M19.34,16.65l-1.88,1.88-.8-.8a.38.38,0,0,0-.55,0,.38.38,0,0,0,0,.54l1.08,1.08a.39.39,0,0,0,.27.11.43.43,0,0,0,.28-.11l2.15-2.15a.39.39,0,1,0-.55-.55Z"/><rect class="cls-5" width="36" height="36"/></g></g></svg>