<svg xmlns="http://www.w3.org/2000/svg" viewBox="0 0 36 36"><defs><style>.cls-1{fill:#fef0ce;}.cls-2{fill:#fff;}.cls-3{fill:#333;}.cls-4{fill:#fbb600;}.cls-5,.cls-6{fill:none;}.cls-5{stroke:#333;stroke-linecap:round;stroke-miterlimit:10;stroke-width:0.5px;}</style></defs><g id="Layer_2" data-name="Layer 2"><g id="Layer_1-2" data-name="Layer 1"><circle class="cls-1" cx="18" cy="18" r="16"/><rect class="cls-2" x="8.25" y="10.75" width="19.5" height="14.5" rx="1.75"/><path class="cls-3" d="M26,11a1.5,1.5,0,0,1,1.5,1.5v11A1.5,1.5,0,0,1,26,25H10a1.5,1.5,0,0,1-1.5-1.5v-11A1.5,1.5,0,0,1,10,11H26m0-.5H10a2,2,0,0,0-2,2v11a2,2,0,0,0,2,2H26a2,2,0,0,0,2-2v-11a2,2,0,0,0-2-2Z"/><polygon class="cls-4" points="14.06 23.13 13.69 22.31 13.87 21.59 14.13 20.99 14.13 20.01 15.05 19.51 15.47 19.06 15.62 18.53 16.15 18.33 16.96 18.33 17.87 17.91 18.59 18.06 18.95 18.3 19.9 18.32 20.45 18.65 20.96 19.51 21.84 20.14 21.96 21.45 22.39 22.26 21.82 23.56 21.66 24.56 20.69 25.21 19.99 26.07 18.96 26.07 17.93 26.62 16.89 26.05 15.74 25.98 15.07 24.89 14.18 24.41 14.06 23.13"/><path class="cls-2" d="M18,19.94a2.26,2.26,0,1,1-2.26,2.26A2.27,2.27,0,0,1,18,19.94"/><polygon class="cls-2" points="20.11 28.37 20.69 26.86 22.29 27.07 21.09 24.92 20.87 24.92 20.26 26.03 18.81 26.1 20.11 28.37"/><polygon class="cls-2" points="14.93 24.89 13.69 27.06 15.31 26.86 15.91 28.33 17.2 26.17 16.11 26.04 15.74 25.98 15.17 24.92 14.93 24.89"/><path class="cls-3" d="M22.54,27l-1.19-2.07.33-.19a.7.7,0,0,0,.37-.62v-.84l.42-.73a.7.7,0,0,0,0-.71l-.43-.74v-.84a.71.71,0,0,0-.35-.62L21,19.23l-.42-.71a.7.7,0,0,0-.62-.37h-.84l-.73-.42a.7.7,0,0,0-.71,0l-.74.43h-.84a.68.68,0,0,0-.61.35l-.43.73-.71.42a.7.7,0,0,0-.37.62v.84l-.42.73a.7.7,0,0,0,0,.71l.43.74v.84a.69.69,0,0,0,.35.61l.35.2L13.46,27a.2.2,0,0,0,0,.23.21.21,0,0,0,.21.09l1.48-.25.53,1.41a.22.22,0,0,0,.18.14h0a.21.21,0,0,0,.19-.11l1.19-2.06.37.21a.68.68,0,0,0,.36.1.73.73,0,0,0,.35-.09l.38-.22,1.19,2.06a.21.21,0,0,0,.19.11h0a.22.22,0,0,0,.18-.14l.53-1.41,1.48.25a.21.21,0,0,0,.21-.09.2.2,0,0,0,0-.23Zm-6.61.9-.43-1.15a.22.22,0,0,0-.24-.13l-1.2.2,1-1.67h0l.42.71a.7.7,0,0,0,.62.37h.82Zm2.21-1.6a.28.28,0,0,1-.28,0h0l-.78-.45a.2.2,0,0,0-.11,0h-.9a.27.27,0,0,1-.25-.14h0l-.44-.77-.08-.08-.79-.45a.28.28,0,0,1-.13-.24v-.9a.2.2,0,0,0,0-.11l-.46-.78a.26.26,0,0,1,0-.28h0l.45-.77a.23.23,0,0,0,0-.11v-.9a.27.27,0,0,1,.14-.25h0l.77-.44a.3.3,0,0,0,.08-.08l.45-.79a.28.28,0,0,1,.24-.13H17a.2.2,0,0,0,.11,0l.78-.46a.26.26,0,0,1,.28,0h0l.78.45a.2.2,0,0,0,.11,0h.9a.27.27,0,0,1,.25.14h0l.44.77a.3.3,0,0,0,.08.08l.79.45a.28.28,0,0,1,.13.24v.9a.23.23,0,0,0,0,.11l.46.78a.28.28,0,0,1,0,.28h0l-.45.78a.2.2,0,0,0,0,.11v.9a.29.29,0,0,1-.14.25h0l-.77.44-.08.08-.45.79a.28.28,0,0,1-.24.13H19a.2.2,0,0,0-.11,0Zm2.6.32a.22.22,0,0,0-.24.13l-.43,1.15-1-1.66h.82a.69.69,0,0,0,.61-.35l.43-.73h0l1,1.67Z"/><path class="cls-3" d="M18,19.94a2.26,2.26,0,1,1-2.26,2.26A2.27,2.27,0,0,1,18,19.94m0-.43a2.69,2.69,0,1,0,2.69,2.69A2.7,2.7,0,0,0,18,19.51Z"/><line class="cls-5" x1="11.25" y1="13.4" x2="24.75" y2="13.4"/><line class="cls-5" x1="11.25" y1="15.4" x2="24.75" y2="15.4"/><rect class="cls-6" width="36" height="36"/></g></g></svg>