<svg xmlns="http://www.w3.org/2000/svg" viewBox="0 0 36 36"><defs><style>.cls-1{fill:#cbf8d3;}.cls-2{fill:#fff;}.cls-3{fill:#333;}.cls-4{fill:#fbb600;}.cls-5{fill:none;}</style></defs><g id="Layer_2" data-name="Layer 2"><g id="Layer_1-2" data-name="Layer 1"><circle class="cls-1" cx="18" cy="18" r="16"/><rect class="cls-2" x="8.25" y="14.46" width="19.5" height="13.5" rx="1.75"/><path class="cls-3" d="M26,14.71a1.5,1.5,0,0,1,1.5,1.5v10a1.5,1.5,0,0,1-1.5,1.5H10a1.5,1.5,0,0,1-1.5-1.5v-10a1.5,1.5,0,0,1,1.5-1.5H26m0-.5H10a2,2,0,0,0-2,2v10a2,2,0,0,0,2,2H26a2,2,0,0,0,2-2v-10a2,2,0,0,0-2-2Z"/><polygon class="cls-4" points="16.18 16.59 15.07 15.22 14.79 13.34 15.63 11.69 17.18 10.77 18.92 10.77 20.68 12.2 21.08 13.56 21.08 14.7 20.75 15.59 20.22 16.19 19.76 16.59 16.18 16.59"/><path class="cls-3" d="M18,11a2.9,2.9,0,0,1,1.67,5.27H16.3A2.9,2.9,0,0,1,18,11ZM14.8,15.21a3.39,3.39,0,0,0,.7,1.05h-1v.53h6.89v-.53h-1a3.19,3.19,0,0,0,.69-1.05,2,2,0,0,0,.17-.53,3.49,3.49,0,0,0,.1-.79,3.43,3.43,0,0,0-6.86,0,3.48,3.48,0,0,0,.09.79A5.49,5.49,0,0,0,14.8,15.21Z"/><path class="cls-2" d="M18,14.68a.26.26,0,0,1-.26-.26.27.27,0,1,0-.53,0,.79.79,0,0,0,.53.74v.31a.26.26,0,0,0,.26.27.27.27,0,0,0,.26-.27v-.31A.79.79,0,0,0,18,13.63a.27.27,0,0,1,0-.53.26.26,0,0,1,.26.26.27.27,0,1,0,.53,0,.79.79,0,0,0-.53-.74v-.31A.27.27,0,0,0,18,12a.26.26,0,0,0-.26.27v.31A.79.79,0,0,0,18,14.15a.27.27,0,0,1,0,.53Z"/><path class="cls-3" d="M18,9.9a.26.26,0,0,0,.26-.26V8.58A.26.26,0,0,0,18,8.32a.26.26,0,0,0-.26.26V9.64A.26.26,0,0,0,18,9.9Z"/><path class="cls-3" d="M19,9.37a.27.27,0,0,0,.27-.26V8.05a.27.27,0,0,0-.53,0V9.11A.26.26,0,0,0,19,9.37Z"/><path class="cls-3" d="M16.91,9.37a.27.27,0,0,0,.27-.26V8.05a.27.27,0,0,0-.53,0V9.11A.26.26,0,0,0,16.91,9.37Z"/><rect class="cls-3" x="8" y="18.27" width="20" height="0.5"/><path class="cls-3" d="M25.5,24.71a1,1,0,1,1-1,1,1,1,0,0,1,1-1m0-.5a1.5,1.5,0,1,0,1.5,1.5,1.5,1.5,0,0,0-1.5-1.5Z"/><path class="cls-3" d="M21.5,24.71a1,1,0,1,1-1,1,1,1,0,0,1,1-1m0-.5a1.5,1.5,0,1,0,1.5,1.5,1.5,1.5,0,0,0-1.5-1.5Z"/><rect class="cls-5" width="36" height="36"/></g></g></svg>