<svg xmlns="http://www.w3.org/2000/svg" viewBox="0 0 36 36"><defs><style>.cls-1{fill:none;}</style></defs><g id="Layer_2" data-name="Layer 2"><g id="Layer_1-2" data-name="Layer 1"><rect x="17.25" y="4.48" width="1.5" height="26" transform="translate(-7.09 17.85) rotate(-45)"/><path d="M22.25,24.56A9.51,9.51,0,0,1,18,25.69c-4.34,0-8.86-3.94-11.22-7.59a.18.18,0,0,1,0-.2A20.29,20.29,0,0,1,11,13.27L9.89,12.2a21.94,21.94,0,0,0-4.37,4.88,1.7,1.7,0,0,0,0,1.84C8.18,23,13.07,27.19,18,27.19a11.35,11.35,0,0,0,5.37-1.51Z"/><path d="M30.48,17.08C27.82,13,22.93,8.81,18,8.81A10.92,10.92,0,0,0,13.32,10l1.14,1.14a9,9,0,0,1,3.54-.8c4.34,0,8.86,3.93,11.22,7.59a.18.18,0,0,1,0,.2,20.2,20.2,0,0,1-3.62,4.16l1.07,1.07a21.73,21.73,0,0,0,3.81-4.41A1.7,1.7,0,0,0,30.48,17.08Z"/><path d="M19.37,21.68a3.91,3.91,0,0,1-5.05-5.05l-1.14-1.14a5.43,5.43,0,0,0,7.33,7.33Z"/><path d="M17.46,14.12a3.31,3.31,0,0,1,.54-.06A4,4,0,0,1,21.94,18a3.31,3.31,0,0,1-.06.54l1.25,1.24A5.24,5.24,0,0,0,23.44,18,5.45,5.45,0,0,0,18,12.56a5.24,5.24,0,0,0-1.78.31Z"/><rect class="cls-1" width="36" height="36"/></g></g></svg>