<svg xmlns="http://www.w3.org/2000/svg" viewBox="0 0 36 36">
    <defs>
        <style>.cls-1{fill:red;}</style>
    </defs>
    <g id="Layer_2" data-name="Layer 2">
        <g id="Layer_1-2" data-name="Layer 1">
            <path class="cls-1" d="M18,7.5A10.5,10.5,0,1,1,7.5,18,10.51,10.51,0,0,1,18,7.5M18,6A12,12,0,1,0,30,18,12,12,0,0,0,18,6Z"/>
            <path class="cls-1" d="M18,12.93c-.53,0-.95.29-.95.8,0,1.56.18,3.79.18,5.35,0,.4.36.57.77.57s.76-.17.76-.57c0-1.56.18-3.79.18-5.35A.84.84,0,0,0,18,12.93Z"/>
            <path class="cls-1" d="M18,21.05a1,1,0,0,0,0,2,1,1,0,0,0,0-2Z"/>
            <!-- <rect width="36" height="36"/> -->
        </g>
    </g>
</svg>