<svg width="34" height="34" viewBox="0 0 34 34" fill="none" xmlns="http://www.w3.org/2000/svg">
<path fill-rule="evenodd" clip-rule="evenodd" d="M19.834 8.49992V5.66659H14.1673V8.49992H19.834ZM5.66732 11.3333V26.9166H28.334V11.3333H5.66732ZM28.334 8.49992C29.9065 8.49992 31.1673 9.76075 31.1673 11.3333V26.9166C31.1673 28.4891 29.9065 29.7499 28.334 29.7499H5.66732C4.09482 29.7499 2.83398 28.4891 2.83398 26.9166L2.84815 11.3333C2.84815 9.76075 4.09482 8.49992 5.66732 8.49992H11.334V5.66659C11.334 4.09409 12.5948 2.83325 14.1673 2.83325H19.834C21.4065 2.83325 22.6673 4.09409 22.6673 5.66659V8.49992H28.334Z" fill="#323232"/>
</svg>
