<svg width="40" height="40" viewBox="0 0 40 40" fill="none" xmlns="http://www.w3.org/2000/svg">
<path d="M29.3474 10.0479H27.1075V11.6479C27.1075 12.8318 26.1474 13.7919 24.9635 13.7919H14.8515C13.6675 13.7919 12.7075 12.8318 12.7075 11.6479V10.0479H10.5954C9.73134 10.0479 9.02734 10.7519 9.02734 11.6159V33.6319C9.02734 34.496 9.73134 35.2 10.5954 35.2H29.3794C30.2435 35.2 30.9475 34.496 30.9475 33.6319V11.6159C30.9475 10.7519 30.2437 10.0479 29.3475 10.0479H29.3474ZM12.8034 18.2079L13.1873 17.8239C13.3474 17.6639 13.6034 17.6639 13.7632 17.8239L14.7233 18.784L16.8032 16.7041C16.9632 16.5441 17.2192 16.5441 17.379 16.7041L17.7311 17.0561C17.8911 17.2162 17.8911 17.44 17.763 17.6001L15.0429 20.736C14.8828 20.928 14.5949 20.928 14.4348 20.736L12.8348 18.72C12.6435 18.5599 12.6435 18.3358 12.8033 18.2079L12.8034 18.2079ZM17.7635 28.3519L15.0115 31.5519C14.8514 31.7438 14.5315 31.7438 14.4034 31.5519L12.7393 29.5039C12.6114 29.3438 12.6114 29.1199 12.7713 28.9599L13.1552 28.576C13.3152 28.4159 13.5713 28.4159 13.7311 28.576L14.723 29.536L16.8351 27.424C16.9951 27.2639 17.2511 27.2639 17.411 27.424L17.7949 27.8079C17.8915 27.9679 17.8915 28.1918 17.7634 28.3519H17.7635ZM17.7635 22.9757L15.0115 26.1757C14.8514 26.3677 14.5315 26.3677 14.4034 26.1757L12.7393 24.1277C12.6114 23.9677 12.6114 23.7438 12.7713 23.5838L13.1552 23.1998C13.3152 23.0398 13.5713 23.0398 13.7311 23.1998L14.723 24.1599L16.8351 22.0478C16.9951 21.8878 17.2511 21.8878 17.411 22.0478L17.7949 22.4318C17.8915 22.5599 17.8915 22.8159 17.7634 22.9757H17.7635ZM27.3315 30.3997C27.3315 30.5598 27.2036 30.6877 27.0435 30.6877H20.0035C19.8435 30.6877 19.7156 30.5598 19.7156 30.3997V29.3756C19.7156 29.2156 19.8435 29.0877 20.0035 29.0877H27.0435C27.2036 29.0877 27.3315 29.2156 27.3315 29.3756V30.3997ZM27.3315 24.9917C27.3315 25.1517 27.2036 25.2796 27.0435 25.2796H20.0035C19.8435 25.2796 19.7156 25.1517 19.7156 24.9917V23.9676C19.7156 23.8075 19.8435 23.6796 20.0035 23.6796H27.0435C27.2036 23.6796 27.3315 23.8075 27.3315 23.9676V24.9917ZM27.3315 19.6158C27.3315 19.7758 27.2036 19.9037 27.0435 19.9037H20.0035C19.8435 19.9037 19.7156 19.7758 19.7156 19.6158V18.5917C19.7156 18.4316 19.8435 18.3037 20.0035 18.3037H27.0435C27.2036 18.3037 27.3315 18.4316 27.3315 18.5917V19.6158Z" fill="#56BB6F"/>
<path d="M14.8524 12.3519H24.9964C25.3803 12.3519 25.7004 12.0318 25.7004 11.6479V8.76798C25.7004 8.38405 25.3803 8.06398 24.9964 8.06398H23.3323C23.2366 6.23987 21.7326 4.79993 19.9085 4.79993C18.0843 4.79993 16.6124 6.23987 16.5165 8.06398H14.8524C14.4685 8.06398 14.1484 8.38407 14.1484 8.76798V11.6479C14.1484 12.0318 14.4685 12.3519 14.8524 12.3519H14.8524ZM19.9084 6.91192C20.6124 6.91192 21.2205 7.48781 21.2205 8.22398C21.2205 8.92798 20.6446 9.53604 19.9084 9.53604C19.2044 9.53604 18.5963 8.96015 18.5963 8.22398C18.6285 7.48781 19.2044 6.91192 19.9084 6.91192Z" fill="#434557"/>
</svg>
