<svg width="40" height="40" viewBox="0 0 40 40" fill="none" xmlns="http://www.w3.org/2000/svg">
<path d="M12.8036 11.137H21.2516C21.5717 11.137 21.8597 10.881 21.8597 10.529V8.12896C21.8597 7.80886 21.6037 7.5209 21.2516 7.5209H19.8436C19.7795 6.0169 18.5315 4.80078 17.0275 4.80078C15.4915 4.80078 14.2755 6.01684 14.2114 7.5209H12.8034C12.4833 7.5209 12.1953 7.77693 12.1953 8.12896V10.529C12.1955 10.849 12.4835 11.137 12.8036 11.137ZM17.0275 6.59301C17.6356 6.59301 18.1154 7.07292 18.1154 7.68096C18.1154 8.28899 17.6355 8.7689 17.0275 8.7689C16.4194 8.7689 15.9395 8.28899 15.9395 7.68096C15.9395 7.07292 16.4195 6.59301 17.0275 6.59301Z" fill="#56BB6F"/>
<path d="M20.8693 21.985C23.3653 21.729 24.1012 20.481 24.1012 20.481C24.4852 19.681 25.3173 19.169 26.2133 19.169V10.529C26.2133 9.79303 25.6374 9.21692 24.9012 9.21692H23.4291V10.5609C23.4291 11.777 22.4372 12.7368 21.2532 12.7368L12.8052 12.737C11.5892 12.737 10.6294 11.777 10.6294 10.5611V9.21714H9.25346C8.51752 9.21714 7.94141 9.8252 7.94141 10.5292V28.8652C7.94141 29.6011 8.51729 30.1772 9.25346 30.1772H19.0775C18.8534 29.5051 18.7255 28.7692 18.7255 27.9692L18.725 24.321C18.7572 23.1051 19.6531 22.081 20.869 21.985L20.8693 21.985Z" fill="#434557"/>
<path d="M31.3988 23.7126C27.8787 23.3605 26.8229 21.3445 26.7908 21.2485C26.6948 21.0244 26.4707 20.8965 26.2468 20.8965C26.0227 20.8965 25.7988 21.0244 25.7028 21.2485C25.6709 21.3445 24.6149 23.3606 21.0948 23.7126C20.7747 23.7445 20.5508 24.0005 20.5508 24.3206V27.9686C20.5508 32.3206 25.7668 35.0406 25.9907 35.1686C26.0867 35.2005 26.1827 35.2327 26.2787 35.2327C26.3747 35.2327 26.4706 35.2008 26.5666 35.1686C26.7907 35.0407 32.0066 32.3206 32.0066 27.9686L32.0068 24.3206C31.9427 24.0007 31.6867 23.7447 31.3987 23.7126H31.3988ZM28.9028 27.4887L26.1508 30.2407C25.9908 30.4007 25.7669 30.4967 25.5428 30.4967C25.3186 30.4967 25.0948 30.4007 24.9347 30.2407L23.4948 28.8007C23.1427 28.4487 23.1427 27.9047 23.4948 27.5847C23.8468 27.2327 24.3908 27.2327 24.7108 27.5847L25.5428 28.4166L27.6868 26.2726C28.0388 25.9206 28.5828 25.9206 28.9028 26.2726C29.2548 26.5927 29.2548 27.1367 28.9028 27.4887Z" fill="#56BB6F"/>
</svg>
