<svg width="40" height="40" viewBox="0 0 40 40" fill="none" xmlns="http://www.w3.org/2000/svg">
<path d="M23.6803 9.96117C23.6803 8.68128 22.6562 7.65717 21.3763 7.65717H18.6243C17.3444 7.65717 16.3203 8.68128 16.3203 9.96117V11.3052H23.6803V9.96117Z" fill="#434557"/>
<path d="M32.0968 12.8732H7.90478C6.20878 12.8732 4.80078 14.2812 4.80078 15.9772V29.2892C4.80078 30.9852 6.20884 32.3932 7.90478 32.3932H32.0968C33.7928 32.3932 35.2008 30.9851 35.2008 29.2892V15.9772C35.2008 14.2493 33.7927 12.8732 32.0968 12.8732ZM13.6008 16.9372C15.1048 16.9372 16.3528 18.1533 16.3528 19.6892C16.3528 21.1932 15.1367 22.4412 13.6008 22.4412C12.0648 22.4412 10.8488 21.2252 10.8488 19.6892C10.8488 18.1852 12.0648 16.9372 13.6008 16.9372ZM9.31284 27.0812C9.31284 25.1933 10.0168 23.5292 11.1048 22.5053C11.7769 23.0812 12.6407 23.4654 13.6008 23.4654C14.5608 23.4654 15.4249 23.1134 16.0968 22.5053C17.1847 23.5294 17.8887 25.1933 17.8887 27.0812C17.8568 28.7453 9.31272 28.7453 9.31272 27.0812H9.31284ZM30.1448 28.1053H21.7608C21.3448 28.1053 20.9928 27.7533 20.9928 27.3373C20.9928 26.9212 21.3448 26.5692 21.7608 26.5692H30.1448C30.5609 26.5692 30.9129 26.9212 30.9129 27.3373C30.9129 27.7533 30.5928 28.1053 30.1448 28.1053ZM30.1448 23.4013H21.7608C21.3448 23.4013 20.9928 23.0493 20.9928 22.6333C20.9928 22.2172 21.3448 21.8652 21.7608 21.8652H30.1448C30.5609 21.8652 30.9129 22.2172 30.9129 22.6333C30.9129 23.0493 30.5928 23.4013 30.1448 23.4013ZM30.1448 18.7292H21.7608C21.3448 18.7292 20.9928 18.3772 20.9928 17.9612C20.9928 17.5451 21.3448 17.1931 21.7608 17.1931H30.1448C30.5609 17.1931 30.9129 17.5451 30.9129 17.9612C30.9129 18.3772 30.5928 18.7292 30.1448 18.7292Z" fill="#56BB6F"/>
</svg>
