<svg width="215" height="215" viewBox="0 0 215 215" fill="none" xmlns="http://www.w3.org/2000/svg">
<path d="M31.8663 163.091C37.7143 177.362 47.2495 180.332 53.9536 177.362C66.9189 171.617 100.598 165.199 135.188 180.286C181.001 200.268 190.748 170.12 176.127 139.625C161.506 109.13 156.55 78.2909 173.406 61.3004C190.261 44.31 168.204 17.7307 129.034 45.3979C103.72 63.2774 85.143 59.2961 75.1671 54.2417C65.7651 49.478 55.309 44.4979 45.5127 48.3864C33.6259 53.1049 28.9421 63.3348 47.0273 86.1885C72.6557 118.574 18.7572 131.104 31.8663 163.091Z" fill="#A1D6AE" fill-opacity="0.3"/>
<path d="M55.6797 93.5745H146.692V163.569C146.692 163.711 146.636 163.848 146.535 163.949C146.434 164.05 146.297 164.106 146.155 164.106H56.2172C56.0746 164.106 55.9379 164.05 55.8371 163.949C55.7363 163.848 55.6797 163.711 55.6797 163.569V93.5745Z" fill="#9AD9A9"/>
<path d="M123.86 66.1454H81.5413L55.6797 93.5743H146.692L123.86 66.1454Z" fill="#56BB6F"/>
<path d="M64.2987 55.1737L81.5397 66.1454L55.6781 93.5743L36.0859 78.6843L64.2987 55.1737Z" fill="#75D08C"/>
<path d="M141.1 55.1737L123.859 66.1454L146.692 93.5743L169.313 78.6843L141.1 55.1737Z" fill="#75D08C"/>
<path d="M92.6571 55.7347C93.1436 55.504 93.5221 55.0942 93.7136 54.591C93.905 54.0877 93.8945 53.5299 93.6843 53.0342L85.9283 34.7454C85.8185 34.4864 85.6574 34.2522 85.4547 34.057C85.252 33.8618 85.012 33.7096 84.749 33.6096C84.486 33.5096 84.2054 33.4638 83.9243 33.4749C83.6431 33.4861 83.3671 33.554 83.1129 33.6745L81.6186 34.3831C81.3644 34.5036 81.1371 34.6743 80.9506 34.8849C80.764 35.0956 80.6219 35.3417 80.5329 35.6087C80.4439 35.8756 80.4098 36.1578 80.4327 36.4382C80.4555 36.7187 80.5348 36.9916 80.6659 37.2406L89.916 54.8207C90.1668 55.2973 90.592 55.6584 91.1028 55.8288C91.6136 55.9991 92.1705 55.9654 92.6571 55.7347Z" fill="#56BB6F"/>
<path d="M102.38 53.9617C102.732 53.9366 103.06 53.7764 103.297 53.5146C103.534 53.2528 103.661 52.9096 103.65 52.5568L103.267 39.5368C103.262 39.3523 103.219 39.1709 103.142 39.0034C103.064 38.8359 102.954 38.6858 102.817 38.562C102.68 38.4382 102.52 38.3434 102.345 38.2833C102.171 38.2231 101.986 38.1989 101.802 38.2119L100.72 38.289C100.536 38.3021 100.357 38.3523 100.193 38.4365C100.029 38.5207 99.8834 38.6372 99.7655 38.779C99.6476 38.9208 99.5595 39.085 99.5066 39.2617C99.4538 39.4384 99.4372 39.624 99.4578 39.8072L100.923 52.7503C100.962 53.1011 101.136 53.4231 101.408 53.6489C101.679 53.8747 102.027 53.9867 102.38 53.9617Z" fill="#56BB6F"/>
<path d="M109.889 58.7747C110.858 59.3347 112.217 58.8208 112.971 57.6096L126.362 36.104C127.162 34.8192 126.973 33.2534 125.945 32.6594L124.513 31.8317C123.486 31.2376 122.034 31.8545 121.32 33.1887L109.361 55.522C108.688 56.7798 108.921 58.2146 109.889 58.7747Z" fill="#56BB6F"/>
</svg>
